<svg width="39" height="40" viewBox="0 0 39 40" fill="none" xmlns="http://www.w3.org/2000/svg">
<g filter="url(#filter0_d_25_2079)">
<path fill-rule="evenodd" clip-rule="evenodd" d="M4 16.3482L4.00154 16.1879L4.00473 16.0275L4.00956 15.8671L4.01603 15.7067L4.02416 15.5463L4.03393 15.3859L4.04535 15.2256L4.05842 15.0653L4.07314 14.905L4.0895 14.7448L4.10752 14.5848L4.12718 14.4248L4.14849 14.265L4.17145 14.1053L4.19605 13.9458L4.2223 13.7865L4.25019 13.6273L4.27972 13.4684L4.3109 13.3097L4.34371 13.1512L4.37817 12.993L4.41425 12.835L4.45198 12.6774L4.49132 12.5201L4.5323 12.3631L4.5749 12.2064L4.61914 12.0501L4.66498 11.8942L4.71245 11.7386L4.76152 11.5835L4.81221 11.4288L4.8645 11.2745L4.9184 11.1206L4.97389 10.9673L5.03098 10.8144L5.08965 10.662L5.14991 10.5102L5.21175 10.3588L5.27517 10.2081L5.34015 10.0578L5.4067 9.90816L5.47482 9.75912L5.54448 9.61072L5.6157 9.46288L5.68846 9.31568L5.76275 9.1692L5.83858 9.02336L5.91593 8.87816L5.99479 8.73376L6.07517 8.59L6.15706 8.44696L6.24043 8.30472L6.3253 8.1632L6.41166 8.02248L6.49949 7.88256L6.58878 7.74344L6.67954 7.6052L6.77176 7.46768L6.86542 7.33112L6.96051 7.19536L7.05703 7.06048L7.15497 6.92656L7.25432 6.79344L7.35507 6.66136L7.45722 6.53016L7.56075 6.39987L7.66566 6.27059L7.77193 6.14229L7.87955 6.01498L7.98853 5.88866L8.09884 5.76338L8.21047 5.63913L8.32342 5.51592L8.43769 5.39378L8.55324 5.2727L8.67008 5.15272L8.78819 5.03383L8.90757 4.91606L9.0282 4.79941L9.15007 4.6839L9.27318 4.56954L9.3975 4.45634L9.52302 4.34433L9.64975 4.2335L9.77766 4.12386L9.90674 4.01544L10.037 3.90825L10.1684 3.80229L10.3009 3.69758L10.4346 3.59412L10.5693 3.49194L10.7052 3.39104L10.8422 3.29144L10.9802 3.19314L11.1192 3.09616L11.2594 3.0005L11.4005 2.90618L11.5426 2.81321L11.6858 2.72159L11.8301 2.63135L11.9752 2.54249L12.1214 2.45501L12.2684 2.36894L12.4164 2.28427L12.5654 2.20102L12.7152 2.11921L12.8659 2.03882L13.0175 1.9599L13.17 1.88242L13.3234 1.80641L13.4775 1.73187L13.6326 1.65882L13.7883 1.58726L13.945 1.5172L14.1023 1.44865L14.2605 1.38162L14.4194 1.31611L14.579 1.25214L14.7393 1.1897L14.9003 1.12882L15.062 1.06948L15.2244 1.01172L15.3874 0.95552L15.5511 0.900896L15.7154 0.847864L15.8802 0.796416L16.0458 0.746568L16.2118 0.698328L16.3784 0.651696L16.5456 0.606672L16.7133 0.563272L16.8814 0.521504L17.0501 0.481376L17.2193 0.442872L17.3889 0.406024L17.5589 0.370816L17.7294 0.337264L17.9002 0.305376L18.0715 0.275144L18.2432 0.246584L18.4152 0.219696L18.5875 0.19448L18.7602 0.170952L18.9331 0.149104L19.1064 0.128944L19.2799 0.110464L19.4537 0.093696L19.6277 0.078616L19.8019 0.0652321L19.9763 0.0535601L20.9142 0L20.9678 4.51894L20.9984 4.51858L21.1279 4.5184L21.2574 4.51949L21.387 4.52185L21.5166 4.52549L21.6462 4.5304L21.7759 4.53658L21.9056 4.54404L22.0353 4.55278L22.1649 4.56279L22.2946 4.57409L22.4241 4.58666L22.5536 4.60052L22.683 4.61565L22.8123 4.63206L22.9415 4.64974L23.0706 4.6687L23.1996 4.68895L23.3285 4.71047L23.4571 4.73326L23.5857 4.75734L23.714 4.78268L23.8421 4.8093L23.9701 4.83719L24.0978 4.86635L24.2252 4.89678L24.3525 4.92847L24.4794 4.96144L24.6061 4.99566L24.7325 5.03115L24.8586 5.0679L24.9844 5.1059L25.1098 5.14515L25.235 5.18566L25.3598 5.22742L25.4842 5.27042L25.6082 5.31467L25.7318 5.36015L25.855 5.40688L25.9778 5.45483L26.1002 5.50402L26.2222 5.55444L26.3436 5.60607L26.4646 5.65893L26.5852 5.713L26.7052 5.76828L26.8247 5.82476L26.9438 5.88245L27.0622 5.94134L27.1802 6.00142L27.2975 6.06268L27.4143 6.12513L27.5306 6.18876L27.6462 6.25356L27.7612 6.31953L27.8756 6.38666L27.9894 6.45496L28.1025 6.5244L28.215 6.59496L28.3267 6.66672L28.4378 6.73952L28.5482 6.81352L28.658 6.88864L28.767 6.9648L28.8753 7.04216L28.9828 7.12056L29.0895 7.20008L29.1956 7.28072L29.3008 7.3624L29.4053 7.4452L29.5089 7.52896L29.6118 7.61384L29.7138 7.69984L29.815 7.7868L29.9154 7.8748L30.0149 7.96384L30.1134 8.05392L30.2112 8.14504L30.3081 8.23712L30.4041 8.33016L30.4991 8.42424L30.5933 8.51928L30.6865 8.61536L30.7788 8.71232L30.8701 8.81024L30.9605 8.90912L31.0498 9.00896L31.1382 9.10968L31.2257 9.21136L31.3121 9.31392L31.3975 9.41736L31.4819 9.52176L31.5653 9.62696L31.6476 9.73304L31.7289 9.84L31.8091 9.94784L31.8882 10.0565L31.9663 10.166L32.0433 10.2763L32.1192 10.3874L32.194 10.4993L32.2677 10.612L32.3402 10.7255L32.4116 10.8398L32.4819 10.9547L32.551 11.0705L32.619 11.187L32.6858 11.3042L32.7515 11.4221L32.816 11.5407L32.8793 11.66L32.9414 11.78L33.0022 11.9006L33.0619 12.0219L33.1204 12.1439L33.1777 12.2665L33.2337 12.3897L33.2885 12.5135L33.342 12.6379L33.3942 12.763L33.4453 12.8885L33.495 13.0146L33.5435 13.1413L33.5907 13.2686L33.6366 13.3962L33.6813 13.5246L33.7246 13.6533L33.7667 13.7826L33.8074 13.9122L33.8469 14.0424L33.885 14.173L33.9218 14.3041L33.9572 14.4356L33.9914 14.5675L34.0241 14.6998L34.0556 14.8325L34.0857 14.9655L34.1144 15.099L34.1418 15.2326L34.1678 15.3668L34.1925 15.5012L34.2158 15.6359L34.2378 15.7709L34.2583 15.9062L34.2775 16.0418L34.2953 16.1775L34.3117 16.3136L34.3267 16.4498L34.3403 16.5863L34.3526 16.723L34.3634 16.8598L34.3729 16.9969L34.3809 17.1341L34.3875 17.2714L34.3928 17.4089L34.3966 17.5464L34.399 17.6841L34.4 17.8218L34.3996 17.9597L34.3978 18.0976L34.3945 18.2356L34.3898 18.3735L34.3838 18.5115L34.3763 18.6495L34.3674 18.7875L34.357 18.9255L34.3453 19.0634L34.3321 19.2014L34.3175 19.3392L34.3014 19.4769L34.284 19.6146L34.2652 19.7521L34.2449 19.8895L34.2232 20.0268L34.2001 20.1639L34.1755 20.3009L34.1496 20.4377L34.1222 20.5743L34.0934 20.7107L34.0632 20.8469L34.0316 20.9829L33.9986 21.1186L33.9642 21.254L33.9283 21.3891L33.8911 21.524L33.8525 21.6586L33.8125 21.7928L33.771 21.9268L33.7282 22.0603L33.684 22.1936L33.6384 22.3264L33.5914 22.4589L33.543 22.591L33.4933 22.7226L33.4422 22.8538L33.3897 22.9846L33.3358 23.1149L33.2806 23.2447L33.2241 23.3742L33.1662 23.503L33.1069 23.6314L33.0462 23.7592L32.9843 23.8865L32.921 24.0133L32.8564 24.1394L32.7904 24.2651L32.7232 24.3901L32.6546 24.5146L32.5847 24.6383L32.5135 24.7615L32.441 24.8841L32.3673 25.0059L32.2922 25.1272L32.2158 25.2477L32.1382 25.3675L32.0594 25.4866L31.9793 25.605L31.8979 25.7227L31.8153 25.8397L31.7314 25.9558L31.6463 26.0713L31.56 26.1859L31.4725 26.2998L31.3838 26.4127L31.2938 26.525L31.2027 26.6363L31.1104 26.7468L31.0169 26.8565L30.9222 26.9653L30.8264 27.0732L30.7294 27.1802L30.6314 27.2864L30.5322 27.3916L30.4318 27.4959L30.3303 27.5992L30.2277 27.7016L30.124 27.803L30.0193 27.9035L29.9134 28.003L29.8066 28.1015L29.6986 28.199L29.5895 28.2954L29.4795 28.3909L29.3684 28.4854L29.2563 28.5787L29.1432 28.671L29.0291 28.7622L28.914 28.8524L28.7979 28.9414L28.6809 29.0294L28.5629 29.1162L28.444 29.202L28.3241 29.2866L28.2033 29.3701L28.0816 29.4524L27.959 29.5335L27.8355 29.6135L27.7112 29.6924L27.586 29.77L27.4599 29.8465L27.333 29.9217L27.2052 29.9958L27.0767 30.0686L26.9473 30.1401L26.8172 30.2105L26.6862 30.2795L26.5546 30.3474L26.4221 30.414L26.2889 30.4793L26.155 30.5433L26.0203 30.6061L25.885 30.6675L25.749 30.7277L25.6122 30.7865L25.4749 30.844L25.3369 30.9002L25.1982 30.9551L25.059 31.0086L24.919 31.0609L24.7786 31.1117L24.6374 31.1612L24.4958 31.2093L24.3537 31.2561L24.2109 31.3014L24.0676 31.3454L23.9238 31.3881L23.7796 31.4293L23.6348 31.4691L23.4896 31.5076L23.3438 31.5446L23.1978 31.5802L23.0512 31.6144L22.9042 31.6471L22.7568 31.6785L22.609 31.7084L22.4609 31.7369L22.3124 31.7639L22.1636 31.7894L22.0144 31.8136L21.865 31.8363L21.7151 31.8575L21.5651 31.8773L21.4148 31.8956L21.2642 31.9124L21.1134 31.9278L20.9623 31.9417L20.8111 31.9541L20.6597 31.965L20.5081 31.9745L20.3562 31.9825L20.2043 31.989L20.0523 31.9939L19.9001 31.9974L19.7478 31.9994L19.5954 32L19.443 31.999L19.2906 31.9966L19.138 31.9926L18.9854 31.9871L18.8329 31.9802L18.6803 31.9718L18.5278 31.9618L18.3753 31.9503L18.2229 31.9374L18.0705 31.9229L17.9182 31.907L17.766 31.8895L17.6139 31.8706L17.4619 31.8501L17.3102 31.8281L17.1585 31.8046L17.007 31.7797L16.8558 31.7533L16.7046 31.7253L16.5538 31.6958L16.4032 31.665L16.2529 31.6325L16.1027 31.5986L15.953 31.5632L15.8034 31.5263L15.6542 31.4879L15.5054 31.4481L15.3569 31.4068L15.2087 31.364L15.0609 31.3198L14.9135 31.274L14.7666 31.2268L14.62 31.1782L14.4738 31.128L14.3282 31.0764L14.183 31.0234L14.0382 30.969L13.894 30.913L13.7503 30.8557L13.6071 30.7969L13.4645 30.7366L13.3224 30.675L13.1809 30.612L13.0399 30.5475L12.8996 30.4816L12.7599 30.4143L12.6209 30.3456L12.4824 30.2755L12.3446 30.2041L12.2076 30.1312L12.0711 30.057L11.9354 29.9814L11.8005 29.9045L11.6662 29.8262L11.5327 29.7465L11.4 29.6655L11.268 29.5831L11.1368 29.4995L11.0065 29.4145L10.8769 29.3282L10.7482 29.2406L10.6203 29.1517L10.4933 29.0615L10.3671 28.97L10.2419 28.8773L10.1175 28.7832L9.99405 28.6879L9.87152 28.5914L9.74993 28.4936L9.6293 28.3946L9.50962 28.2944L9.39093 28.193L9.27322 28.0903L9.15653 27.9864L9.04085 27.8814L8.9262 27.7752L8.81258 27.6678L8.70003 27.5593L8.58854 27.4495L8.47813 27.3387L8.36881 27.2268L8.26059 27.1137L8.15349 26.9995L8.04751 26.8842L7.94268 26.7678L7.83899 26.6504L7.73646 26.5319L7.63511 26.4123L7.53494 26.2918L7.43598 26.1701L7.33821 26.0474L7.24166 25.9238L7.14634 25.7991L7.05226 25.6734L6.95943 25.5468L6.86786 25.4192L6.77756 25.2906L6.68854 25.1612L6.60082 25.0308L6.51439 24.8994L6.42928 24.7673L6.34548 24.6342L6.26302 24.5002L6.1819 24.3654L6.10212 24.2296L6.02371 24.0931L5.94666 23.9558L5.87099 23.8176L5.79671 23.6786L5.72382 23.5388L5.65234 23.3983L5.58226 23.257L5.51361 23.115L5.44638 22.9722L5.38059 22.8288L5.31625 22.6846L5.25335 22.5398L5.19192 22.3942L5.13196 22.248L5.07346 22.1011L5.01646 21.9536L4.96094 21.8055L4.90692 21.6568L4.8544 21.5075L4.80338 21.3577L4.75389 21.2072L4.70592 21.0562L4.65947 20.9047L4.61457 20.7527L4.5712 20.6002L4.52938 20.4471L4.4891 20.2937L4.45039 20.1398L4.41324 19.9854L4.37766 19.8306L4.34366 19.6753L4.31122 19.5197L4.28038 19.3637L4.25111 19.2074L4.22344 19.0506L4.19737 18.8936L4.17289 18.7362L4.15002 18.5786L4.12875 18.4206L4.1091 18.2623L4.09106 18.1038L4.07464 17.9451L4.05984 17.7862L4.04666 17.627L4.03511 17.4677L4.02519 17.3082L4.0169 17.1485L4.01025 16.9886L4.00522 16.8287L4.00184 16.6686L4.0001 16.5085L4 16.3482ZM19.5025 4.61359L19.466 1.53343L19.4314 1.53678L19.2723 1.5537L19.1137 1.57217L18.9551 1.5922L18.7972 1.61372L18.6394 1.63681L18.4818 1.66144L18.3247 1.68758L18.1678 1.71529L18.0116 1.74443L17.8552 1.77521L17.6999 1.80737L17.5444 1.84115L17.3897 1.87637L17.2351 1.91315L17.0813 1.95134L16.9278 1.99107L16.7748 2.03228L16.6222 2.07498L16.4704 2.1191L16.3188 2.16475L16.168 2.21182L16.0176 2.26038L15.868 2.31028L15.7186 2.36176L15.5701 2.41462L15.4222 2.46887L15.2748 2.52461L15.1282 2.5817L14.9823 2.64018L14.8369 2.70015L14.6922 2.76149L14.5482 2.82422L14.405 2.88828L14.2625 2.95373L14.1208 3.0205L13.9796 3.08874L13.8394 3.15822L13.7 3.22906L13.5614 3.30124L13.4235 3.37475L13.2866 3.44952L13.1503 3.52567L13.0149 3.60314L12.8806 3.68172L12.7468 3.76183L12.6142 3.84301L12.4826 3.92545L12.3515 4.00924L12.2215 4.09426L12.0925 4.18051L11.9646 4.26778L11.8373 4.3566L11.7112 4.44637L11.5861 4.53738L11.4618 4.62963L11.3387 4.72298L11.2167 4.81746L11.0954 4.91326L10.9755 5.00997L10.8565 5.10795L10.7386 5.207L10.6217 5.3072L10.506 5.40836L10.3912 5.5108L10.2777 5.61415L10.1651 5.7187L10.0539 5.82412L9.9437 5.93069L9.8347 6.03822L9.72682 6.14681L9.61999 6.25652L9.51456 6.36698L9.41031 6.4784L9.30699 6.59112L9.2051 6.70456L9.10446 6.8188L9.00486 6.93424L8.9067 7.0504L8.80962 7.1676L8.71386 7.2856L8.61934 7.40456L8.52606 7.52432L8.43416 7.64488L8.34346 7.76632L8.254 7.88872L8.16598 8.01168L8.07914 8.13568L7.99369 8.26032L7.90955 8.38576L7.82668 8.512L7.74521 8.63896L7.66507 8.76656L7.58628 8.89496L7.5089 9.024L7.43278 9.15384L7.35804 9.2844L7.28477 9.41544L7.21281 9.5472L7.14222 9.67968L7.07307 9.81272L7.00528 9.9464L6.93894 10.0806L6.87399 10.2154L6.81047 10.3507L6.74834 10.4867L6.68767 10.6231L6.62838 10.7602L6.57054 10.8977L6.51418 11.0356L6.45923 11.1741L6.40572 11.313L6.35368 11.4524L6.30308 11.5922L6.25398 11.7324L6.20629 11.8731L6.16008 12.0142L6.11535 12.1556L6.0721 12.2973L6.0303 12.4395L5.99 12.5819L5.95118 12.7247L5.91382 12.8678L5.87796 13.0112L5.84359 13.1548L5.81071 13.2987L5.77932 13.4429L5.74942 13.5873L5.72102 13.7318L5.69411 13.8766L5.6687 14.0216L5.64479 14.1668L5.62238 14.3121L5.60147 14.4575L5.58206 14.6031L5.56415 14.7488L5.54774 14.8946L5.53284 15.0405L5.51944 15.1864L5.50754 15.3323L5.49714 15.4784L5.48824 15.6245L5.48084 15.7705L5.47494 15.9166L5.47054 16.0626L5.46765 16.2086L5.46624 16.3545L5.46634 16.5004L5.46792 16.6462L5.471 16.7919L5.47557 16.9375L5.48162 17.083L5.48918 17.2283L5.4982 17.3734L5.50871 17.5185L5.5207 17.6633L5.53418 17.8079L5.54911 17.9524L5.56553 18.0966L5.58341 18.2406L5.60275 18.3842L5.62356 18.5277L5.64583 18.6709L5.66954 18.8137L5.69472 18.9562L5.72134 19.0985L5.74939 19.2403L5.77889 19.3819L5.80982 19.523L5.84218 19.6638L5.87596 19.8042L5.91116 19.9442L5.94778 20.0838L5.9858 20.2229L6.02524 20.3616L6.06607 20.4998L6.1083 20.6376L6.15191 20.7749L6.1969 20.9116L6.24326 21.0478L6.29101 21.1835L6.34011 21.3187L6.39056 21.4533L6.44239 21.5874L6.49554 21.7208L6.55002 21.8537L6.60586 21.9859L6.663 22.1175L6.72147 22.2486L6.78125 22.379L6.84233 22.5086L6.9047 22.6377L6.96836 22.766L7.0333 22.8937L7.09951 23.0206L7.16698 23.1469L7.23572 23.2724L7.3057 23.3971L7.37691 23.5211L7.44936 23.6444L7.52304 23.7668L7.5979 23.8885L7.67401 24.0094L7.75128 24.1294L7.82976 24.2486L7.90942 24.367L7.99022 24.4846L8.07219 24.6013L8.15534 24.7171L8.23959 24.8321L8.32501 24.9462L8.4115 25.0593L8.49916 25.1715L8.58786 25.2828L8.67769 25.3932L8.76862 25.5027L8.86056 25.6112L8.9536 25.7187L9.04767 25.8253L9.14282 25.9309L9.23896 26.0354L9.3361 26.139L9.43428 26.2416L9.53344 26.3432L9.63362 26.4438L9.73474 26.5432L9.83685 26.6417L9.93987 26.739L10.0438 26.8354L10.1488 26.9307L10.2546 27.0249L10.3613 27.1179L10.469 27.2099L10.5775 27.3008L10.6868 27.3906L10.7971 27.4793L10.9082 27.5667L11.0201 27.6531L11.1328 27.7384L11.2464 27.8225L11.3607 27.9054L11.4758 27.9871L11.5917 28.0677L11.7084 28.1471L11.8258 28.2253L11.944 28.3023L12.0628 28.3782L12.1824 28.4527L12.3027 28.5262L12.4236 28.5983L12.5453 28.6693L12.6675 28.739L12.7905 28.8074L12.914 28.8746L13.0382 28.9406L13.163 29.0054L13.2883 29.0689L13.4143 29.131L13.5409 29.192L13.6679 29.2517L13.7955 29.3101L13.9236 29.3671L14.0523 29.423L14.1814 29.4774L14.3111 29.5307L14.4412 29.5826L14.5718 29.6332L14.7028 29.6826L14.8342 29.7306L14.966 29.7772L15.0983 29.8226L15.231 29.8666L15.364 29.9094L15.4973 29.9507L15.6311 29.9908L15.7651 30.0295L15.8995 30.0669L16.0342 30.103L16.1692 30.1377L16.3045 30.171L16.4399 30.203L16.5758 30.2338L16.7118 30.263L16.8479 30.291L16.9844 30.3177L17.121 30.343L17.2578 30.3669L17.3948 30.3894L17.5319 30.4106L17.6692 30.4305L17.8066 30.449L17.9441 30.4662L18.0817 30.4819L18.2194 30.4963L18.3571 30.5094L18.495 30.5211L18.6328 30.5315L18.7706 30.5405L18.9086 30.5482L19.0464 30.5544L19.1842 30.5594L19.3221 30.563L19.4599 30.5651L19.5976 30.566L19.7353 30.5655L19.8729 30.5637L20.0103 30.5606L20.1477 30.556L20.285 30.5502L20.4221 30.543L20.559 30.5344L20.6958 30.5246L20.8324 30.5134L20.9688 30.5008L21.105 30.4869L21.241 30.4717L21.3766 30.4552L21.5122 30.4374L21.6474 30.4182L21.7823 30.3977L21.917 30.3759L22.0514 30.3528L22.1854 30.3284L22.3191 30.3027L22.4525 30.2758L22.5855 30.2474L22.7182 30.2179L22.8504 30.187L22.9823 30.1549L23.1138 30.1215L23.2448 30.0868L23.3754 30.0509L23.5056 30.0137L23.6353 29.9752L23.7646 29.9355L23.8933 29.8946L24.0216 29.8524L24.1494 29.809L24.2765 29.7644L24.4033 29.7185L24.5294 29.6714L24.655 29.6231L24.7801 29.5737L24.9045 29.523L25.0283 29.4711L25.1516 29.4181L25.2742 29.3638L25.3962 29.3085L25.5176 29.2519L25.6383 29.1942L25.7583 29.1354L25.8778 29.0753L25.9964 29.0142L26.1144 28.9519L26.2318 28.8885L26.3482 28.824L26.4641 28.7584L26.5791 28.6918L26.6936 28.6239L26.807 28.5551L26.92 28.4851L27.0319 28.4142L27.1431 28.3421L27.2536 28.269L27.3633 28.1947L27.4719 28.1197L27.5798 28.0434L27.687 27.9662L27.7932 27.8881L27.8986 27.8088L28.003 27.7287L28.1068 27.6474L28.2094 27.5654L28.3112 27.4823L28.4122 27.3982L28.5122 27.3132L28.6112 27.2274L28.7094 27.1405L28.8065 27.0528L28.9027 26.9642L28.998 26.8746L29.0922 26.7843L29.1855 26.693L29.2778 26.6008L29.3691 26.5078L29.4594 26.414L29.5486 26.3194L29.6368 26.2241L29.7242 26.1276L29.8102 26.0306L29.8954 25.9327L29.9794 25.8342L30.0625 25.7347L30.1444 25.6346L30.2252 25.5338L30.305 25.4321L30.3837 25.3298L30.4614 25.2267L30.5378 25.123L30.6132 25.0186L30.6876 24.9134L30.7606 24.8078L30.8326 24.7013L30.9034 24.5943L30.9732 24.4866L31.0419 24.3782L31.1093 24.2694L31.1755 24.1599L31.2407 24.0496L31.3046 23.9391L31.3674 23.8278L31.429 23.716L31.4894 23.6038L31.5486 23.4909L31.6067 23.3774L31.6634 23.2639L31.7191 23.1494L31.7736 23.0346L31.8268 22.9194L31.8788 22.8037L31.9296 22.6875L31.9791 22.571L32.0275 22.4539L32.0746 22.3365L32.1205 22.219L32.1651 22.1006L32.2085 21.9822L32.2507 21.8632L32.2917 21.744L32.3314 21.6244L32.3697 21.5048L32.407 21.3843L32.4428 21.264L32.4774 21.1433L32.5109 21.0224L32.543 20.901L32.5738 20.7797L32.6035 20.6579L32.6318 20.5359L32.659 20.4138L32.6848 20.2914L32.7093 20.1691L32.7326 20.0462L32.7546 19.9237L32.7753 19.8006L32.7947 19.6775L32.8129 19.5544L32.8298 19.431L32.8454 19.3078L32.8598 19.1841L32.8729 19.0608L32.8847 18.9371L32.8952 18.8137L32.9045 18.6898L32.9125 18.5665L32.9192 18.4427L32.9246 18.3189L32.9288 18.1954L32.9318 18.0721L32.9334 17.9483L32.9338 17.8248L32.9329 17.7014L32.9307 17.5782L32.9273 17.4549L32.9226 17.3321L32.9166 17.2088L32.9094 17.0861L32.901 16.9634L32.8913 16.841L32.8803 16.7185L32.8682 16.5965L32.8547 16.4744L32.84 16.3527L32.8241 16.2311L32.807 16.1099L32.7885 15.9886L32.7689 15.8679L32.7481 15.7476L32.726 15.6272L32.7026 15.5072L32.6782 15.3877L32.6524 15.2681L32.6256 15.1494L32.5974 15.0305L32.5682 14.9124L32.5375 14.7942L32.5058 14.6768L32.473 14.5596L32.4389 14.4426L32.4037 14.3264L32.3673 14.2106L32.3296 14.0948L32.291 13.9799L32.251 13.8651L32.21 13.751L32.1678 13.6372L32.1245 13.5242L32.0799 13.4113L32.0343 13.299L31.9877 13.1875L31.9399 13.0765L31.8908 12.9656L31.841 12.8558L31.7897 12.746L31.7375 12.6373L31.6842 12.529L31.6298 12.421L31.5744 12.314L31.5178 12.2074L31.4602 12.1014L31.4018 11.9963L31.342 11.8915L31.2814 11.7876L31.2195 11.6842L31.157 11.5818L31.093 11.4796L31.0284 11.3784L30.9626 11.2777L30.8958 11.1778L30.8282 11.0789L30.7594 10.9803L30.6898 10.8826L30.6192 10.7857L30.5476 10.6896L30.4751 10.5941L30.4017 10.4995L30.3274 10.4056L30.2521 10.3126L30.1759 10.2203L30.0988 10.1288L30.0208 10.0382L29.942 9.94832L29.8624 9.85936L29.7818 9.7712L29.7002 9.68376L29.6182 9.59752L29.5349 9.51176L29.4511 9.4272L29.3664 9.34328L29.281 9.2604L29.1944 9.17816L29.1075 9.0972L29.0195 9.01688L28.9308 8.93752L28.8416 8.8592L28.7515 8.78176L28.6604 8.70504L28.5688 8.62944L28.4766 8.5548L28.3835 8.48112L28.2898 8.40832L28.1955 8.33672L28.1002 8.26568L28.0046 8.196L27.9082 8.1272L27.8111 8.05928L27.7136 7.99248L27.615 7.92648L27.5165 7.86184L27.4168 7.79792L27.3168 7.73512L27.216 7.67328L27.1148 7.61248L27.013 7.5528L26.9109 7.49424L26.8078 7.4364L26.7046 7.37992L26.6006 7.32432L26.4962 7.26984L26.3914 7.21648L26.286 7.16408L26.1802 7.11272L26.0739 7.06256L25.9671 7.01336L25.8601 6.96536L25.7525 6.91832L25.641 6.87096L25.5362 6.82768L25.4272 6.78384L25.3183 6.74136L25.2086 6.69968L25.0988 6.65936L24.9886 6.62L24.8781 6.58184L24.7671 6.54464L24.6561 6.50872L24.5446 6.47384L24.4328 6.44008L24.321 6.40752L24.2086 6.37597L24.0959 6.3455L23.9834 6.31628L23.8706 6.28817L23.757 6.26109L23.6439 6.23526L23.5302 6.21046L23.4166 6.18686L23.3025 6.16433L23.1886 6.14298L23.0743 6.12274L22.9602 6.10368L22.8454 6.08568L22.731 6.06887L22.6164 6.05318L22.5016 6.03861L22.3868 6.02518L22.272 6.01291L22.1571 6.00176L22.0422 5.99174L21.9271 5.98286L21.812 5.9751L21.6972 5.96849L21.5823 5.96301L21.467 5.95865L21.3524 5.95543L21.2375 5.95334L21.1227 5.95238L21.0078 5.95254L20.9847 5.9528L21.021 9.01056L21.0862 9.01024L21.1701 9.01072L21.254 9.012L21.338 9.01416L21.4221 9.01712L21.5062 9.02096L21.5902 9.0256L21.6744 9.03104L21.7586 9.03736L21.8427 9.04448L21.9269 9.05248L22.011 9.06128L22.0951 9.07096L22.1792 9.08144L22.2632 9.09272L22.3472 9.10496L22.4311 9.11792L22.515 9.13176L22.5988 9.14648L22.6825 9.162L22.7661 9.1784L22.8496 9.1956L22.933 9.2136L23.0163 9.23248L23.0994 9.25224L23.1825 9.2728L23.2653 9.29416L23.348 9.3164L23.4306 9.33944L23.513 9.36336L23.5952 9.38808L23.6772 9.4136L23.759 9.44L23.8406 9.4672L23.922 9.49528L24.0031 9.52416L24.0841 9.55384L24.1647 9.58432L24.2452 9.61568L24.3254 9.64784L24.4053 9.6808L24.4849 9.71464L24.5642 9.7492L24.6433 9.78464L24.722 9.8208L24.8004 9.85784L24.8786 9.89568L24.9563 9.93432L25.0338 9.97376L25.1109 10.014L25.1876 10.055L25.264 10.0968L25.34 10.1394L25.4156 10.1827L25.4909 10.2269L25.5658 10.2718L25.6402 10.3175L25.7142 10.364L25.7878 10.4113L25.861 10.4593L25.9337 10.508L26.006 10.5575L26.0778 10.6078L26.1492 10.6588L26.2201 10.7106L26.2905 10.7631L26.3605 10.8163L26.4298 10.8703L26.4988 10.925L26.5672 10.9804L26.6351 11.0366L26.7025 11.0934L26.7694 11.151L26.8357 11.2092L26.9014 11.2682L26.9666 11.3278L27.0312 11.3882L27.0953 11.4492L27.1587 11.5109L27.2216 11.5733L27.2839 11.6363L27.3456 11.7001L27.4067 11.7644L27.4671 11.8294L27.527 11.8951L27.5862 11.9614L27.6447 12.0283L27.7026 12.0959L27.7599 12.1641L27.8166 12.2329L27.8725 12.3023L27.9278 12.3723L27.9823 12.443L28.0362 12.5142L28.0894 12.586L28.1419 12.6583L28.1938 12.7313L28.2448 12.8048L28.2952 12.8789L28.3448 12.9535L28.3937 13.0286L28.4418 13.1044L28.4893 13.1806L28.536 13.2574L28.5819 13.3346L28.627 13.4125L28.6714 13.4907L28.715 13.5695L28.7578 13.6488L28.7999 13.7286L28.8412 13.8088L28.8816 13.8895L28.9213 13.9707L28.9602 14.0523L28.9982 14.1343L29.0354 14.2169L29.0718 14.2998L29.1074 14.3831L29.1421 14.4669L29.176 14.551L29.209 14.6356L29.2412 14.7205L29.2726 14.8058L29.303 14.8915L29.3327 14.9776L29.3615 15.064L29.3894 15.1508L29.4164 15.2378L29.4426 15.3253L29.4678 15.413L29.4922 15.5011L29.5157 15.5895L29.5383 15.6782L29.56 15.7671L29.5808 15.8563L29.6007 15.9458L29.6197 16.0356L29.6378 16.1256L29.6549 16.2158L29.6711 16.3064L29.6865 16.3971L29.7009 16.488L29.7143 16.5792L29.7269 16.6705L29.7385 16.762L29.7492 16.8538L29.7589 16.9457L29.7677 17.0377L29.7756 17.1299L29.7825 17.2222L29.7885 17.3147L29.7934 17.4073L29.7975 17.5L29.8006 17.5929L29.8028 17.6858L29.804 17.7788L29.8042 17.8719L29.8035 17.965L29.8018 18.0582L29.7992 18.1515L29.7956 18.2449L29.791 18.3382L29.7855 18.4315L29.779 18.525L29.7716 18.6183L29.7631 18.7117L29.7538 18.805L29.7434 18.8983L29.7321 18.9917L29.7198 19.0849L29.7065 19.1781L29.6922 19.2712L29.677 19.3642L29.6609 19.4572L29.6437 19.5501L29.6256 19.6429L29.6065 19.7355L29.5864 19.8281L29.5654 19.9205L29.5434 20.0127L29.5205 20.1048L29.4966 20.1968L29.4717 20.2886L29.4458 20.3802L29.419 20.4715L29.3913 20.5627L29.3626 20.6538L29.3328 20.7446L29.3022 20.835L29.2706 20.9254L29.2381 21.0154L29.2046 21.1052L29.1701 21.1947L29.1347 21.284L29.0984 21.373L29.0611 21.4617L29.0229 21.55L28.9838 21.6381L28.9437 21.7258L28.9026 21.8132L28.8607 21.9002L28.8178 21.987L28.774 22.0733L28.7293 22.1593L28.6837 22.2448L28.6371 22.33L28.5897 22.4148L28.5414 22.4992L28.4921 22.5831L28.4419 22.6667L28.3909 22.7498L28.339 22.8325L28.2861 22.9146L28.2324 22.9964L28.1778 23.0776L28.1223 23.1584L28.066 23.2387L28.0088 23.3185L27.9507 23.3978L27.8918 23.4766L27.8321 23.5548L27.7714 23.6325L27.71 23.7096L27.6477 23.7862L27.5846 23.8622L27.5206 23.9378L27.4558 24.0126L27.3902 24.087L27.3238 24.1606L27.2566 24.2338L27.1886 24.3062L27.1199 24.3782L27.0503 24.4494L26.98 24.52L26.9088 24.5899L26.837 24.6593L26.7642 24.7279L26.6909 24.7958L26.6167 24.8632L26.5418 24.9298L26.4662 24.9957L26.3898 25.061L26.3127 25.1254L26.2349 25.1893L26.1564 25.2523L26.0771 25.3146L25.9972 25.3762L25.9166 25.4371L25.8354 25.4972L25.7534 25.5566L25.6708 25.6152L25.5875 25.673L25.5036 25.73L25.419 25.7862L25.3338 25.8417L25.2479 25.8963L25.1615 25.9502L25.0744 26.0031L24.9868 26.0554L24.8985 26.1067L24.8097 26.1572L24.7202 26.2069L24.6302 26.2558L24.5397 26.3038L24.4486 26.3509L24.3569 26.3971L24.2647 26.4425L24.172 26.487L24.0787 26.5306L23.985 26.5734L23.8907 26.6152L23.796 26.6562L23.7007 26.6962L23.605 26.7353L23.5089 26.7735L23.4122 26.8108L23.3152 26.8472L23.2177 26.8826L23.1198 26.9171L23.0214 26.9506L22.9226 26.9833L22.8234 27.0149L22.7239 27.0456L22.624 27.0754L22.5237 27.1041L22.423 27.1319L22.322 27.1587L22.2206 27.1846L22.119 27.2094L22.017 27.2334L21.9146 27.2562L21.812 27.2782L21.709 27.299L21.6058 27.319L21.5024 27.3379L21.3986 27.3558L21.2946 27.3727L21.1905 27.3886L21.086 27.4034L20.9813 27.4173L20.8764 27.4302L20.7714 27.4419L20.6661 27.4527L20.5606 27.4625L20.455 27.4712L20.3493 27.4789L20.2434 27.4855L20.1373 27.4911L20.0311 27.4957L19.9248 27.4992L19.8184 27.5017L19.7119 27.5031L19.6053 27.5035L19.4986 27.5029L19.392 27.5011L19.2852 27.4984L19.1784 27.4946L19.0716 27.4897L18.9647 27.4838L18.8579 27.4768L18.751 27.4688L18.6442 27.4597L18.5374 27.4495L18.4306 27.4383L18.3239 27.4261L18.2173 27.4128L18.1106 27.3984L18.0042 27.383L17.8978 27.3665L17.7914 27.349L17.6852 27.3303L17.5791 27.3107L17.4732 27.29L17.3674 27.2682L17.2618 27.2454L17.1563 27.2215L17.051 27.1966L16.9459 27.1706L16.841 27.1435L16.7363 27.1154L16.6318 27.0863L16.5277 27.0562L16.4237 27.025L16.3199 26.9927L16.2165 26.9594L16.1134 26.925L16.0104 26.8897L15.9078 26.8533L15.8056 26.8158L15.7036 26.7774L15.602 26.7378L15.5007 26.6974L15.3998 26.6558L15.2992 26.6132L15.199 26.5697L15.0993 26.525L14.9998 26.4794L14.9009 26.4329L14.8023 26.3853L14.7042 26.3366L14.6064 26.287L14.5092 26.2365L14.4124 26.1849L14.3161 26.1323L14.2202 26.0788L14.1249 26.0242L14.03 25.9688L13.9357 25.9123L13.8418 25.8549L13.7486 25.7966L13.6558 25.7372L13.5637 25.677L13.4721 25.6157L13.381 25.5535L13.2906 25.4905L13.2007 25.4265L13.1114 25.3615L13.0228 25.2957L12.9347 25.2289L12.8474 25.1612L12.7606 25.0926L12.6746 25.0231L12.5891 24.9528L12.5043 24.8815L12.4202 24.8094L12.3369 24.7364L12.2542 24.6626L12.1722 24.5878L12.091 24.5123L12.0104 24.4359L11.9306 24.3586L11.8515 24.2806L11.7733 24.2017L11.6958 24.1219L11.619 24.0414L11.543 23.9601L11.4678 23.878L11.3934 23.795L11.3198 23.7114L11.2471 23.6269L11.1751 23.5417L11.1041 23.4557L11.0338 23.3689L10.9644 23.2814L10.8958 23.1932L10.8282 23.1042L10.7614 23.0146L10.6954 22.9242L10.6303 22.8331L10.5662 22.7414L10.503 22.6489L10.4406 22.5558L10.3792 22.462L10.3188 22.3675L10.2592 22.2724L10.2006 22.1766L10.143 22.0802L10.0863 21.9833L10.0306 21.8856L9.97582 21.7874L9.92204 21.6886L9.86925 21.5892L9.81744 21.4892L9.76663 21.3886L9.71683 21.2875L9.66804 21.1858L9.62026 21.0837L9.57351 20.9809L9.52778 20.8777L9.4831 20.7739L9.43945 20.6696L9.39684 20.5649L9.3553 20.4597L9.3148 20.3539L9.27537 20.2478L9.237 20.1412L9.19971 20.0341L9.1635 19.9266L9.12838 19.8187L9.09434 19.7104L9.06139 19.6018L9.02954 19.4926L8.9988 19.3832L8.96916 19.2734L8.94064 19.1631L8.91323 19.0526L8.88694 18.9418L8.86178 18.8306L8.83774 18.719L8.81483 18.6073L8.79306 18.4952L8.77243 18.3828L8.75294 18.2702L8.73461 18.1573L8.71742 18.0442L8.70138 17.9308L8.6865 17.8172L8.67278 17.7034L8.66022 17.5894L8.64882 17.4752L8.63858 17.3608L8.62953 17.2462L8.62164 17.1316L8.61492 17.0167L8.60938 16.9018L8.60502 16.7867L8.60185 16.6715L8.59985 16.5562L8.59903 16.4408L8.59941 16.3254L8.60096 16.2098L8.60371 16.0943L8.60764 15.9787L8.61277 15.863L8.61909 15.7474L8.62659 15.6318L8.6353 15.5162L8.64518 15.4005L8.65627 15.285L8.66856 15.1694L8.68203 15.0539L8.6967 14.9385L8.71257 14.8231L8.72962 14.7078L8.74788 14.5927L8.76732 14.4777L8.78796 14.3628L8.80979 14.248L8.83282 14.1334L8.85702 14.019L8.88243 13.9046L8.90902 13.7906L8.9368 13.6766L8.96576 13.563L8.99591 13.4495L9.02724 13.3362L9.05975 13.2233L9.09345 13.1106L9.12831 12.9981L9.16436 12.8858L9.20158 12.774L9.23996 12.6624L9.27952 12.5511L9.32024 12.4402L9.36212 12.3295L9.40516 12.2193L9.44936 12.1094L9.49471 11.9998L9.54122 11.8907L9.58886 11.7819L9.63766 11.6736L9.68759 11.5657L9.73866 11.4582L9.79086 11.3511L9.8442 11.2446L9.89866 11.1384L9.95423 11.0328L10.0109 10.9276L10.0687 10.823L10.1276 10.7188L10.1876 10.6151L10.2488 10.5121L10.311 10.4095L10.3743 10.3075L10.4386 10.2061L10.5041 10.1052L10.5706 10.005L10.6382 9.90528L10.7069 9.80624L10.7766 9.70776L10.8473 9.60992L10.9191 9.5128L10.9919 9.41624L11.0658 9.3204L11.1407 9.2252L11.2166 9.13072L11.2935 9.03696L11.3714 8.94384L11.4504 8.85144L11.5303 8.75976L11.6112 8.66888L11.6931 8.57872L11.7759 8.48928L11.8598 8.40064L11.9446 8.31272L12.0302 8.22568L12.1169 8.13936L12.2045 8.05384L12.293 7.9692L12.3825 7.88528L12.4728 7.80232L12.5641 7.72008L12.6562 7.6388L12.7492 7.55832L12.8431 7.47872L12.9379 7.4L13.0335 7.32216L13.13 7.2452L13.2274 7.1692L13.3255 7.09408L13.4245 7.01992L13.5243 6.94664L13.6249 6.87432L13.7262 6.80296L13.8285 6.73256L13.9314 6.66312L14.0351 6.59472L14.1397 6.5272L14.2449 6.46072L14.3509 6.39523L14.4576 6.33074L14.565 6.26727L14.6731 6.20482L14.782 6.1434L14.8915 6.08301L15.0017 6.02367L15.1126 5.96538L15.2241 5.90815L15.3362 5.85198L15.449 5.79689L15.5625 5.74287L15.6766 5.68994L15.7912 5.6381L15.9065 5.58736L16.0223 5.53773L16.1387 5.48921L16.2557 5.4418L16.3731 5.39552L16.4912 5.35037L16.6098 5.30635L16.7289 5.26348L16.8485 5.22175L16.9686 5.18118L17.0891 5.14176L17.2101 5.10351L17.3316 5.06642L17.4535 5.03051L17.5759 4.99578L17.6986 4.96223L17.8218 4.92987L17.9454 4.8987L18.0694 4.86874L18.1938 4.83998L18.3185 4.81241L18.4435 4.78606L18.5689 4.76092L18.6946 4.73701L18.8206 4.71431L18.947 4.69284L19.0736 4.6726L19.2005 4.65359L19.3276 4.63582L19.455 4.61929L19.5025 4.61359ZM19.5562 9.14888L19.5196 6.05751L19.4152 6.0721L19.303 6.08893L19.1906 6.10687L19.079 6.12584L18.9673 6.14597L18.8561 6.16713L18.7451 6.18938L18.6346 6.21266L18.5242 6.23706L18.4142 6.26253L18.3044 6.28905L18.1951 6.31662L18.0859 6.34529L17.981 6.37392L17.8693 6.40568L17.7614 6.43744L17.6539 6.47024L17.547 6.504L17.4404 6.53888L17.3342 6.5748L17.2284 6.61168L17.1232 6.64952L17.0184 6.68848L16.9141 6.72832L16.8102 6.76928L16.707 6.81112L16.6039 6.85408L16.5016 6.89792L16.3998 6.94272L16.2986 6.98848L16.1978 7.03528L16.0974 7.08304L15.998 7.1316L15.8987 7.18128L15.8005 7.23176L15.7024 7.28336L15.6053 7.3356L15.5083 7.38912L15.4123 7.4432L15.317 7.49832L15.2221 7.5544L15.1279 7.61128L15.0342 7.6692L14.9415 7.72776L14.8492 7.78736L14.7578 7.84776L14.667 7.90896L14.5768 7.97112L14.4872 8.03416L14.3986 8.09776L14.3106 8.16248L14.2232 8.22792L14.1366 8.29416L14.0509 8.36112L13.9657 8.42904L13.8814 8.4976L13.7979 8.56696L13.715 8.63728L13.6332 8.70808L13.5519 8.77984L13.4714 8.85232L13.3918 8.92544L13.3131 8.99928L13.235 9.074L13.1579 9.1492L13.0816 9.2252L13.006 9.302L12.9314 9.37936L12.8575 9.45752L12.7846 9.53624L12.7125 9.6156L12.6412 9.69568L12.5707 9.77648L12.5014 9.85768L12.4328 9.93968L12.365 10.0223L12.2982 10.1054L12.2324 10.1891L12.1673 10.2736L12.1032 10.3585L12.04 10.444L11.9778 10.5301L11.9164 10.6167L11.8561 10.7038L11.7966 10.7914L11.7381 10.8797L11.6805 10.9684L11.6239 11.0575L11.5683 11.1472L11.5136 11.2375L11.4598 11.3281L11.4071 11.4192L11.3553 11.5108L11.3046 11.6026L11.2547 11.6951L11.2058 11.7881L11.158 11.8812L11.1111 11.975L11.0653 12.069L11.0204 12.1634L10.9766 12.2582L10.9337 12.3534L10.8918 12.4489L10.851 12.5447L10.8112 12.6409L10.7724 12.7374L10.7346 12.8342L10.6978 12.9314L10.6621 13.0287L10.6273 13.1265L10.5937 13.2243L10.561 13.3226L10.5294 13.421L10.4987 13.5198L10.4692 13.6186L10.4406 13.7178L10.4132 13.817L10.3867 13.9166L10.3613 14.0163L10.337 14.1162L10.3136 14.2163L10.2914 14.3165L10.2701 14.4169L10.25 14.5174L10.2308 14.6179L10.2127 14.7187L10.1957 14.8195L10.1797 14.9205L10.1647 15.0214L10.1508 15.1225L10.138 15.2236L10.1262 15.3248L10.1154 15.426L10.1057 15.5273L10.097 15.6286L10.0894 15.7298L10.0828 15.8311L10.0773 15.9324L10.0728 16.0336L10.0694 16.1348L10.067 16.2359L10.0656 16.337L10.0653 16.4382L10.066 16.5391L10.0678 16.64L10.0705 16.7408L10.0743 16.8414L10.0792 16.9421L10.0851 17.0426L10.092 17.1428L10.0999 17.243L10.1088 17.343L10.1188 17.4429L10.1298 17.5426L10.1418 17.6421L10.1548 17.7414L10.1688 17.8405L10.1838 17.9394L10.1999 18.038L10.2169 18.1365L10.2349 18.2347L10.2539 18.3326L10.274 18.4303L10.295 18.5277L10.3169 18.6249L10.3399 18.7216L10.3638 18.8182L10.3888 18.9144L10.4146 19.0103L10.4414 19.1058L10.4693 19.2011L10.498 19.296L10.5278 19.3906L10.5584 19.4848L10.59 19.5786L10.6226 19.6719L10.656 19.765L10.6904 19.8576L10.7258 19.9498L10.762 20.0416L10.7991 20.133L10.8372 20.2239L10.8762 20.3144L10.9161 20.4044L10.9568 20.494L10.9985 20.583L11.041 20.6717L11.0844 20.7598L11.1287 20.8474L11.1738 20.9346L11.2198 21.0213L11.2667 21.1074L11.3144 21.193L11.363 21.278L11.4123 21.3625L11.4626 21.4464L11.5136 21.5298L11.5654 21.6126L11.6181 21.6949L11.6716 21.7766L11.7258 21.8576L11.7809 21.9382L11.8366 22.018L11.8933 22.0973L11.9506 22.1759L12.0088 22.2539L12.0677 22.3313L12.1274 22.4081L12.1877 22.4842L12.2488 22.5596L12.3106 22.6344L12.3732 22.7086L12.4365 22.7819L12.5005 22.8548L12.5651 22.9268L12.6305 22.9982L12.6965 23.0689L12.7632 23.1389L12.8306 23.2082L12.8986 23.2767L12.9673 23.3446L13.0366 23.4117L13.1066 23.4781L13.1771 23.5437L13.2484 23.6086L13.3202 23.6727L13.3926 23.7361L13.4656 23.7987L13.5392 23.8606L13.6134 23.9217L13.6881 23.9819L13.7634 24.0414L13.8392 24.1002L13.9156 24.1582L13.9926 24.2153L14.0699 24.2716L14.1478 24.3271L14.2263 24.3818L14.3053 24.4358L14.3848 24.4889L14.4647 24.5411L14.5451 24.5926L14.626 24.6432L14.7073 24.693L14.789 24.7419L14.8713 24.79L14.9538 24.8372L15.037 24.8836L15.1203 24.9291L15.2042 24.9738L15.2885 25.0177L15.373 25.0606L15.4581 25.1027L15.5435 25.1439L15.6292 25.1843L15.7152 25.2238L15.8017 25.2624L15.8883 25.3001L15.9754 25.3369L16.0627 25.3729L16.1504 25.4079L16.2382 25.4421L16.3265 25.4754L16.415 25.5078L16.5037 25.5393L16.5926 25.5698L16.6819 25.5996L16.7714 25.6283L16.861 25.6562L16.951 25.6832L17.041 25.7093L17.1313 25.7345L17.2218 25.7587L17.3124 25.7822L17.4032 25.8046L17.4942 25.8261L17.5853 25.8467L17.6766 25.8665L17.7679 25.8853L17.8594 25.9031L17.951 25.9201L18.0426 25.9362L18.1345 25.9514L18.2263 25.9655L18.3182 25.9789L18.4102 25.9913L18.5022 26.0028L18.5943 26.0134L18.6864 26.023L18.7786 26.0318L18.8707 26.0396L18.9629 26.0465L19.055 26.0526L19.1471 26.0576L19.2392 26.0618L19.3314 26.0651L19.4234 26.0675L19.5153 26.069L19.6072 26.0695L19.699 26.0692L19.7908 26.0679L19.8825 26.0658L19.974 26.0628L20.0655 26.0589L20.1568 26.054L20.248 26.0483L20.339 26.0417L20.43 26.0342L20.5207 26.0258L20.6114 26.0165L20.7018 26.0063L20.7921 25.9953L20.8822 25.9834L20.972 25.9706L21.0617 25.957L21.1511 25.9424L21.2402 25.927L21.3293 25.9107L21.418 25.8936L21.5065 25.8757L21.5948 25.8568L21.6826 25.8371L21.7703 25.8166L21.8577 25.7952L21.9448 25.773L22.0316 25.75L22.1181 25.7261L22.2042 25.7014L22.2901 25.6758L22.3755 25.6495L22.4606 25.6223L22.5455 25.5943L22.6299 25.5655L22.714 25.5359L22.7977 25.5055L22.881 25.4743L22.9638 25.4423L23.0463 25.4095L23.1285 25.3759L23.2102 25.3416L23.2914 25.3065L23.3722 25.2706L23.4526 25.234L23.5326 25.1966L23.6121 25.1584L23.691 25.1196L23.7697 25.0798L23.8477 25.0395L23.9254 24.9983L24.0023 24.9566L24.079 24.914L24.1551 24.8707L24.2306 24.8267L24.3058 24.782L24.3803 24.7366L24.4542 24.6906L24.5278 24.6438L24.6006 24.5964L24.673 24.5482L24.745 24.4994L24.8162 24.4499L24.8867 24.3999L24.957 24.349L25.0264 24.2978L25.0954 24.2457L25.1638 24.193L25.2313 24.1398L25.2986 24.0858L25.3651 24.0312L25.4308 23.9762L25.4962 23.9202L25.5608 23.864L25.6247 23.8072L25.6882 23.7495L25.7508 23.6916L25.8129 23.633L25.8743 23.5738L25.935 23.5141L25.995 23.4538L26.0545 23.393L26.1132 23.3316L26.1711 23.2698L26.2285 23.2074L26.2852 23.1445L26.341 23.0812L26.3964 23.0172L26.4509 22.9529L26.5046 22.8881L26.5578 22.8226L26.6102 22.757L26.6618 22.6907L26.7128 22.6241L26.763 22.5569L26.8125 22.4894L26.8611 22.4215L26.9092 22.353L26.9564 22.2842L27.0029 22.215L27.0487 22.1454L27.0935 22.0755L27.1378 22.0051L27.1813 21.9343L27.224 21.8633L27.2658 21.7918L27.3071 21.7199L27.3474 21.648L27.387 21.5754L27.4258 21.5026L27.4638 21.4296L27.5011 21.356L27.5374 21.2826L27.5732 21.2083L27.6079 21.1343L27.6422 21.0595L27.6753 20.9849L27.7078 20.9096L27.7395 20.8344L27.7703 20.7589L27.8004 20.683L27.8297 20.607L27.858 20.5309L27.8858 20.4543L27.9125 20.3777L27.9385 20.3009L27.9637 20.2238L27.9881 20.1466L28.0117 20.0692L28.0344 19.9918L28.0563 19.914L28.0774 19.8362L28.0977 19.7582L28.1171 19.6802L28.1358 19.6021L28.1536 19.5236L28.1706 19.4452L28.1868 19.3667L28.2021 19.2882L28.2166 19.2096L28.2303 19.1306L28.2432 19.052L28.2553 18.9731L28.2665 18.8942L28.2769 18.8154L28.2865 18.7364L28.2953 18.6572L28.3032 18.5786L28.3104 18.4993L28.3167 18.4203L28.3222 18.3415L28.3269 18.2625L28.3307 18.1836L28.3338 18.1048L28.336 18.0258L28.3374 17.9472L28.338 17.8683L28.3378 17.7897L28.3368 17.711L28.335 17.6327L28.3323 17.5542L28.3289 17.4759L28.3246 17.3979L28.3196 17.3197L28.3138 17.2417L28.3072 17.1641L28.2998 17.0862L28.2915 17.0089L28.2825 16.9314L28.2727 16.8542L28.2622 16.7772L28.2508 16.7002L28.2386 16.6236L28.2258 16.5472L28.2121 16.471L28.1976 16.395L28.1823 16.3189L28.1663 16.2434L28.1496 16.1681L28.1321 16.0929L28.1138 16.0178L28.0948 15.9434L28.075 15.8688L28.0545 15.7948L28.0332 15.7209L28.0112 15.6474L27.9885 15.5741L27.965 15.501L27.9408 15.4285L27.9159 15.3562L27.8902 15.2839L27.8639 15.2123L27.8368 15.1409L27.809 15.0699L27.7806 14.9991L27.7514 14.9286L27.7215 14.8588L27.6909 14.789L27.6597 14.7198L27.6278 14.651L27.5951 14.5824L27.5618 14.5142L27.5279 14.4466L27.4932 14.3791L27.458 14.3123L27.4221 14.2459L27.3854 14.1796L27.3483 14.1141L27.3104 14.0488L27.2719 13.9841L27.2327 13.9196L27.1931 13.8558L27.1526 13.7922L27.1118 13.7294L27.0702 13.6669L27.028 13.6049L26.9851 13.5432L26.9418 13.4822L26.8979 13.4217L26.8533 13.3614L26.8082 13.3019L26.7625 13.2428L26.7164 13.1843L26.6695 13.1262L26.6222 13.0686L26.5742 13.0116L26.5258 12.955L26.477 12.8992L26.4274 12.8437L26.3774 12.7889L26.3269 12.7345L26.276 12.6809L26.2243 12.6275L26.1724 12.575L26.1198 12.5227L26.0668 12.4713L26.0134 12.4204L25.9595 12.37L25.905 12.3202L25.8502 12.271L25.7949 12.2225L25.739 12.1743L25.683 12.1271L25.6263 12.0802L25.5693 12.034L25.5118 11.9885L25.4539 11.9434L25.3957 11.899L25.3372 11.8554L25.278 11.8122L25.2184 11.7696L25.1588 11.7279L25.0984 11.6866L25.0381 11.6462L24.9772 11.6062L24.9159 11.5668L24.8542 11.5281L24.7925 11.4902L24.7301 11.4527L24.6676 11.4161L24.6046 11.3799L24.5416 11.3446L24.4781 11.3099L24.4142 11.2758L24.3502 11.2423L24.2859 11.2097L24.2213 11.1775L24.1563 11.1461L24.0913 11.1154L24.0261 11.0854L23.9602 11.0558L23.8946 11.0272L23.8285 10.9992L23.7621 10.9718L23.6956 10.9451L23.629 10.9192L23.5622 10.8939L23.4949 10.8692L23.4278 10.8454L23.3602 10.8221L23.2926 10.7995L23.225 10.7777L23.157 10.7566L23.0891 10.7361L23.0206 10.7162L22.9524 10.6972L22.884 10.6788L22.8154 10.6611L22.7468 10.6441L22.6778 10.6278L22.609 10.6122L22.5402 10.5973L22.4711 10.583L22.4018 10.5694L22.333 10.5567L22.2636 10.5446L22.1944 10.5331L22.1249 10.5223L22.0558 10.5123L21.9861 10.5029L21.9169 10.4943L21.8474 10.4863L21.778 10.479L21.7086 10.4725L21.6391 10.4666L21.5699 10.4614L21.5003 10.4569L21.431 10.453L21.3619 10.4499L21.2923 10.4474L21.2233 10.4457L21.1542 10.4446L21.0851 10.4442L21.0379 10.4444L21.0737 13.4647L21.095 13.4648L21.1347 13.4654L21.1745 13.4663L21.2143 13.4676L21.2542 13.4694L21.2941 13.4716L21.334 13.4742L21.374 13.4772L21.414 13.4806L21.4541 13.4845L21.4942 13.4887L21.5342 13.4934L21.5744 13.4985L21.6145 13.504L21.6546 13.5099L21.6948 13.5163L21.735 13.5231L21.775 13.5303L21.8152 13.538L21.8553 13.546L21.8954 13.5546L21.9354 13.5634L21.9755 13.5728L22.0154 13.5826L22.0554 13.5927L22.0954 13.6034L22.1352 13.6144L22.175 13.6258L22.2148 13.6378L22.2545 13.6501L22.2941 13.6629L22.3337 13.6761L22.3731 13.6897L22.4126 13.7037L22.4518 13.7182L22.491 13.733L22.5302 13.7483L22.5692 13.7641L22.6081 13.7802L22.6469 13.7968L22.6856 13.8138L22.7242 13.8313L22.7626 13.8491L22.801 13.8674L22.8391 13.8861L22.8772 13.9052L22.915 13.9248L22.9528 13.9447L22.9904 13.9651L23.0278 13.9859L23.0651 14.0071L23.1022 14.0287L23.1391 14.0507L23.1759 14.0732L23.2125 14.0961L23.2489 14.1194L23.285 14.143L23.321 14.167L23.3569 14.1916L23.3925 14.2165L23.4278 14.2418L23.463 14.2674L23.498 14.2935L23.5327 14.32L23.5672 14.3469L23.6015 14.3742L23.6355 14.4018L23.6693 14.4298L23.7029 14.4583L23.7362 14.4871L23.7692 14.5163L23.802 14.5459L23.8345 14.5759L23.8667 14.6062L23.8986 14.637L23.9304 14.6681L23.9618 14.6995L23.9929 14.7314L24.0238 14.7635L24.0542 14.7961L24.0845 14.829L24.1144 14.8623L24.1441 14.8959L24.1734 14.9299L24.2023 14.9642L24.231 14.9989L24.2594 15.0339L24.2874 15.0693L24.315 15.105L24.3424 15.141L24.3694 15.1774L24.3961 15.2141L24.4223 15.251L24.4483 15.2884L24.4739 15.3261L24.4991 15.3641L24.524 15.4023L24.5486 15.441L24.5726 15.4798L24.5964 15.519L24.6198 15.5586L24.6427 15.5983L24.6654 15.6384L24.6875 15.6788L24.7094 15.7194L24.7308 15.7604L24.7518 15.8016L24.7724 15.843L24.7926 15.8848L24.8123 15.9269L24.8317 15.9691L24.8506 16.0117L24.8692 16.0545L24.8873 16.0975L24.905 16.1408L24.9222 16.1843L24.939 16.2281L24.9554 16.2721L24.9713 16.3163L24.9867 16.3608L25.0018 16.4054L25.0163 16.4503L25.0304 16.4954L25.0441 16.5407L25.0573 16.5862L25.07 16.632L25.0823 16.6778L25.0942 16.7239L25.1054 16.7702L25.1163 16.8167L25.1267 16.8633L25.1366 16.9102L25.1461 16.9571L25.155 17.0042L25.1634 17.0515L25.1714 17.099L25.179 17.1465L25.1859 17.1942L25.1924 17.2421L25.1984 17.2901L25.2039 17.3382L25.209 17.3865L25.2134 17.4348L25.2174 17.4833L25.221 17.5319L25.2239 17.5806L25.2264 17.6294L25.2283 17.6782L25.2298 17.7272L25.2307 17.7762L25.2312 17.8254L25.231 17.8745L25.2305 17.9238L25.2294 17.9731L25.2277 18.0225L25.2255 18.0719L25.2228 18.1214L25.2196 18.1709L25.2158 18.2204L25.2115 18.27L25.2067 18.3196L25.2014 18.3692L25.1955 18.4188L25.1891 18.4685L25.1822 18.5182L25.1748 18.5678L25.1668 18.6174L25.1582 18.667L25.1492 18.7166L25.1396 18.7662L25.1295 18.8157L25.1188 18.8652L25.1076 18.9146L25.0959 18.9641L25.0836 19.0134L25.0708 19.0628L25.0575 19.112L25.0436 19.1612L25.0292 19.2102L25.0142 19.2593L24.9988 19.3082L24.9828 19.357L24.9662 19.4058L24.9492 19.4545L24.9315 19.503L24.9134 19.5514L24.8947 19.5997L24.8755 19.6479L24.8558 19.6959L24.8355 19.7438L24.8147 19.7916L24.7934 19.8393L24.7715 19.8867L24.7491 19.934L24.7262 19.9812L24.7028 20.0282L24.6788 20.075L24.6543 20.1216L24.6293 20.168L24.6038 20.2142L24.5778 20.2603L24.5512 20.3062L24.5241 20.3518L24.4966 20.3972L24.4684 20.4425L24.4398 20.4874L24.4107 20.5322L24.381 20.5767L24.351 20.621L24.3203 20.665L24.2892 20.7088L24.2575 20.7523L24.2254 20.7956L24.1928 20.8386L24.1597 20.8813L24.1261 20.9238L24.092 20.9659L24.0574 21.0078L24.0224 21.0494L23.9869 21.0906L23.9508 21.1316L23.9143 21.1722L23.8774 21.2126L23.8399 21.2526L23.8021 21.2923L23.7637 21.3318L23.7249 21.3708L23.6856 21.4094L23.6459 21.4478L23.6057 21.4858L23.565 21.5234L23.524 21.5607L23.4825 21.5977L23.4406 21.6342L23.3982 21.6704L23.3554 21.7062L23.3121 21.7416L23.2684 21.7766L23.2243 21.8112L23.1798 21.8454L23.135 21.8793L23.0896 21.9127L23.0439 21.9457L22.9978 21.9782L22.9513 22.0105L22.9043 22.0422L22.857 22.0735L22.8094 22.1043L22.7613 22.1348L22.7128 22.1648L22.664 22.1943L22.6148 22.2234L22.5653 22.252L22.5154 22.2802L22.465 22.3078L22.4145 22.3351L22.3635 22.3618L22.3122 22.3882L22.2606 22.4139L22.2086 22.4393L22.1563 22.4641L22.1037 22.4884L22.0508 22.5122L21.9975 22.5355L21.944 22.5584L21.8902 22.5807L21.836 22.6025L21.7815 22.6238L21.7268 22.6446L21.6718 22.6648L21.6165 22.6846L21.561 22.7038L21.5051 22.7224L21.449 22.7406L21.3927 22.7581L21.3362 22.7751L21.2793 22.7917L21.2222 22.8076L21.165 22.823L21.1074 22.8378L21.0497 22.8522L20.9917 22.8658L20.9335 22.879L20.8751 22.8916L20.8166 22.9037L20.7578 22.9151L20.6988 22.926L20.6397 22.9363L20.5803 22.9461L20.5209 22.9552L20.4612 22.9638L20.4014 22.9718L20.3414 22.9792L20.2814 22.986L20.2211 22.9922L20.1607 22.9978L20.1002 23.0028L20.0396 23.0073L19.9788 23.011L19.918 23.0143L19.857 23.017L19.796 23.019L19.7348 23.0203L19.6736 23.0211L19.6123 23.0214L19.551 23.021L19.4895 23.0199L19.428 23.0182L19.3665 23.016L19.3049 23.0131L19.2432 23.0096L19.1815 23.0055L19.1198 23.0008L19.0582 22.9954L18.9964 22.9894L18.9347 22.9829L18.873 22.9756L18.8113 22.9678L18.7495 22.9593L18.6878 22.9502L18.6262 22.9405L18.5646 22.9302L18.503 22.9192L18.4414 22.9076L18.3799 22.8954L18.3185 22.8826L18.2571 22.8691L18.1958 22.855L18.1346 22.8402L18.0734 22.825L18.0124 22.809L17.9515 22.7923L17.8906 22.7751L17.83 22.7573L17.7694 22.7388L17.7089 22.7197L17.6486 22.7L17.5883 22.6797L17.5283 22.6587L17.4684 22.6371L17.4086 22.6149L17.3491 22.5921L17.2897 22.5686L17.2305 22.5446L17.1714 22.5199L17.1126 22.4946L17.054 22.4687L16.9955 22.4422L16.9374 22.4151L16.8793 22.3874L16.8215 22.359L16.764 22.3301L16.7067 22.3006L16.6497 22.2704L16.5929 22.2397L16.5363 22.2083L16.4801 22.1764L16.424 22.1438L16.3683 22.1107L16.3129 22.077L16.2578 22.0427L16.2029 22.0078L16.1483 21.9724L16.0941 21.9363L16.0402 21.8997L15.9866 21.8625L15.9334 21.8247L15.8804 21.7864L15.8278 21.7474L15.7756 21.708L15.7238 21.668L15.6722 21.6274L15.6211 21.5862L15.5703 21.5446L15.5199 21.5023L15.4699 21.4595L15.4203 21.4162L15.3711 21.3723L15.3223 21.3279L15.2739 21.283L15.2259 21.2375L15.1784 21.1915L15.1312 21.145L15.0846 21.098L15.0383 21.0505L14.9925 21.0024L14.9471 20.9539L14.9022 20.9048L14.8578 20.8553L14.8138 20.8053L14.7704 20.7547L14.7274 20.7038L14.6848 20.6522L14.6428 20.6002L14.6013 20.5478L14.5602 20.495L14.5197 20.4416L14.4797 20.3878L14.4402 20.3335L14.4013 20.2788L14.3628 20.2236L14.3249 20.168L14.2875 20.112L14.2507 20.0555L14.2145 19.9986L14.1787 19.9414L14.1436 19.8837L14.109 19.8255L14.075 19.767L14.0415 19.7081L14.0086 19.6488L13.9763 19.5891L13.9446 19.529L13.9135 19.4686L13.883 19.4078L13.853 19.3466L13.8238 19.285L13.795 19.2232L13.767 19.161L13.7395 19.0984L13.7126 19.0354L13.6864 18.9722L13.6608 18.9086L13.6358 18.8448L13.6115 18.7806L13.5879 18.7161L13.5649 18.6513L13.5425 18.5862L13.5207 18.5209L13.4997 18.4552L13.4793 18.3893L13.4595 18.3231L13.4404 18.2566L13.422 18.1899L13.4043 18.123L13.3872 18.0558L13.3709 17.9883L13.3552 17.9207L13.3402 17.8528L13.3258 17.7847L13.3122 17.7164L13.2993 17.6479L13.287 17.5792L13.2755 17.5103L13.2647 17.4413L13.2546 17.372L13.2451 17.3026L13.2365 17.233L13.2285 17.1634L13.2212 17.0934L13.2146 17.0234L13.2088 16.9533L13.2037 16.883L13.1993 16.8126L13.1956 16.7422L13.1926 16.6716L13.1904 16.6009L13.189 16.5301L13.1882 16.4593L13.1882 16.3883L13.1889 16.3173L13.1904 16.2462L13.1926 16.1751L13.1955 16.1039L13.1992 16.0327L13.2036 15.9615L13.2087 15.8902L13.2146 15.819L13.2213 15.7477L13.2286 15.6764L13.2368 15.6051L13.2457 15.5338L13.2553 15.4626L13.2657 15.3914L13.2768 15.3202L13.2887 15.2491L13.3013 15.178L13.3146 15.107L13.3288 15.036L13.3437 14.9651L13.3593 14.8943L13.3756 14.8236L13.3927 14.753L13.4106 14.6825L13.4292 14.6121L13.4486 14.5418L13.4686 14.4717L13.4894 14.4016L13.511 14.3318L13.5334 14.262L13.5564 14.1924L13.5802 14.123L13.6048 14.0538L13.6301 13.9847L13.6561 13.9158L13.6829 13.8472L13.7104 13.7787L13.7386 13.7104L13.7676 13.6424L13.7973 13.5746L13.8278 13.507L13.8589 13.4396L13.8908 13.3725L13.9234 13.3057L13.9567 13.239L13.9907 13.1727L14.0255 13.1067L14.061 13.041L14.0972 12.9755L14.1341 12.9103L14.1717 12.8454L14.21 12.781L14.249 12.7167L14.2887 12.6528L14.3292 12.5893L14.3703 12.526L14.4121 12.4631L14.4546 12.4006L14.4978 12.3385L14.5416 12.2767L14.5862 12.2154L14.6314 12.1543L14.6772 12.0937L14.7238 12.0335L14.771 11.9737L14.8189 11.9143L14.8674 11.8553L14.9166 11.7968L14.9664 11.7386L15.0169 11.681L15.068 11.6238L15.1198 11.567L15.1722 11.5107L15.2252 11.4549L15.2789 11.3995L15.3331 11.3446L15.388 11.2902L15.4435 11.2363L15.4996 11.183L15.5563 11.1301L15.6136 11.0777L15.6714 11.0258L15.7299 10.9745L15.789 10.9238L15.8486 10.8734L15.9089 10.8238L15.9696 10.7746L16.031 10.726L16.0928 10.678L16.1553 10.6306L16.2182 10.5837L16.2818 10.5374L16.3458 10.4917L16.4104 10.4466L16.4755 10.402L16.5412 10.3581L16.6073 10.3148L16.6739 10.2722L16.7411 10.2301L16.8087 10.1886L16.8769 10.1478L16.9454 10.1077L17.0146 10.0682L17.0841 10.0293L17.1541 9.99104L17.2246 9.95352L17.2954 9.91664L17.3668 9.8804L17.4386 9.84488L17.5108 9.81L17.5834 9.77584L17.6565 9.74232L17.7299 9.70952L17.8038 9.67744L17.8781 9.646L17.9527 9.61528L18.0277 9.58536L18.1031 9.55608L18.1789 9.52752L18.255 9.49968L18.3314 9.47264L18.4083 9.44624L18.4854 9.42064L18.563 9.39576L18.6407 9.3716L18.7189 9.34824L18.7973 9.3256L18.876 9.30376L18.955 9.28264L19.0343 9.26224L19.1139 9.24264L19.1938 9.22384L19.2739 9.20584L19.3542 9.18856L19.4349 9.17208L19.5157 9.1564L19.5562 9.14888ZM20.5498 14.9571L19.6277 15.1774L19.5735 10.6098L19.5301 10.6196L19.4646 10.635L19.3993 10.6511L19.3344 10.6678L19.2696 10.685L19.2052 10.703L19.1408 10.7216L19.077 10.7406L19.0131 10.7605L18.95 10.7807L18.8867 10.8018L18.8238 10.8234L18.7613 10.8455L18.699 10.8682L18.6372 10.8915L18.5755 10.9155L18.5142 10.94L18.4532 10.965L18.3923 10.9908L18.3322 11.0169L18.2722 11.0438L18.2126 11.071L18.1532 11.099L18.0943 11.1274L18.0356 11.1565L17.9775 11.186L17.9197 11.2161L17.8622 11.2467L17.8052 11.2778L17.7485 11.3095L17.6922 11.3418L17.6365 11.3744L17.5807 11.4078L17.5257 11.4414L17.4711 11.4757L17.4169 11.5104L17.363 11.5457L17.3096 11.5814L17.2566 11.6177L17.2041 11.6543L17.1521 11.6914L17.1003 11.7291L17.0491 11.7673L16.9984 11.8058L16.9481 11.8449L16.8983 11.8842L16.849 11.9242L16.8001 11.9646L16.7516 12.0054L16.7038 12.0466L16.6563 12.0882L16.6094 12.1302L16.5629 12.1727L16.5169 12.2157L16.4714 12.259L16.4265 12.3026L16.3819 12.3467L16.338 12.3911L16.2946 12.436L16.2517 12.4811L16.2091 12.5269L16.1673 12.5727L16.1259 12.619L16.085 12.6658L16.0448 12.7126L16.005 12.7601L15.9658 12.8076L15.927 12.8558L15.889 12.904L15.8513 12.9527L15.8142 13.0018L15.7778 13.051L15.7418 13.1005L15.7064 13.1503L15.6715 13.2006L15.6372 13.251L15.6035 13.3018L15.5704 13.3526L15.5378 13.4038L15.5058 13.4554L15.4744 13.5071L15.4434 13.5593L15.4132 13.6114L15.3834 13.6639L15.3542 13.7166L15.3258 13.7695L15.2978 13.8226L15.2704 13.876L15.2435 13.9297L15.2174 13.9833L15.1917 14.0374L15.1666 14.0914L15.1422 14.1458L15.1183 14.2002L15.095 14.255L15.0724 14.3097L15.0503 14.3647L15.0289 14.4198L15.0079 14.4751L14.9877 14.5304L14.968 14.586L14.9489 14.6417L14.9304 14.6974L14.9125 14.7533L14.8952 14.8094L14.8785 14.8654L14.8625 14.9215L14.847 14.9778L14.832 15.0342L14.8178 15.0906L14.8041 15.1471L14.791 15.2037L14.7785 15.2603L14.7666 15.317L14.7554 15.3737L14.7446 15.4304L14.7346 15.4873L14.7251 15.544L14.7162 15.6008L14.7079 15.6578L14.7002 15.7145L14.6932 15.7714L14.6867 15.8282L14.6808 15.885L14.6755 15.942L14.6708 15.9987L14.6667 16.0555L14.6632 16.1123L14.6602 16.169L14.6579 16.2256L14.6562 16.2822L14.655 16.3388L14.6544 16.3953L14.6545 16.4517L14.655 16.508L14.6562 16.5643L14.658 16.6205L14.6603 16.6766L14.6632 16.7326L14.6667 16.7884L14.6708 16.8442L14.6754 16.8998L14.6806 16.9554L14.6864 17.0109L14.6927 17.066L14.6996 17.1213L14.707 17.1762L14.7151 17.2311L14.7237 17.2858L14.7328 17.3403L14.7425 17.3948L14.7527 17.449L14.7635 17.503L14.7748 17.5568L14.7867 17.6106L14.7991 17.664L14.8121 17.7174L14.8255 17.7703L14.8396 17.8234L14.8541 17.8759L14.8691 17.9285L14.8847 17.9806L14.9008 18.0327L14.9174 18.0845L14.9346 18.1359L14.9522 18.1874L14.9704 18.2384L14.989 18.2891L15.0082 18.3398L15.0278 18.3901L15.048 18.4401L15.0686 18.4898L15.0897 18.5393L15.1114 18.5886L15.1334 18.6375L15.156 18.6862L15.179 18.7345L15.2025 18.7825L15.2266 18.8304L15.2509 18.8778L15.2758 18.9249L15.3011 18.9718L15.327 19.0182L15.3532 19.0645L15.3798 19.1104L15.407 19.1558L15.4346 19.2011L15.4625 19.246L15.4909 19.2905L15.5198 19.3347L15.549 19.3786L15.5786 19.4222L15.6086 19.4651L15.6391 19.508L15.67 19.5504L15.7012 19.5924L15.733 19.6342L15.765 19.6754L15.7974 19.7163L15.8302 19.7569L15.8634 19.7971L15.8968 19.8368L15.9308 19.8762L15.965 19.9153L15.9996 19.9538L16.0347 19.9921L16.0699 20.0298L16.1056 20.0673L16.1416 20.1042L16.1778 20.1408L16.2146 20.177L16.2515 20.2127L16.2888 20.2481L16.3264 20.283L16.3643 20.3174L16.4026 20.3515L16.441 20.3851L16.4798 20.4183L16.5189 20.4511L16.5582 20.4834L16.5979 20.5154L16.6379 20.5468L16.678 20.5778L16.7185 20.6083L16.7592 20.6385L16.8002 20.6682L16.8414 20.6974L16.8828 20.7262L16.9245 20.7545L16.9664 20.7823L17.0085 20.8097L17.0508 20.8366L17.0935 20.8632L17.1362 20.8891L17.1792 20.9147L17.2225 20.9398L17.2658 20.9644L17.3093 20.9886L17.3532 21.0123L17.3971 21.0355L17.4412 21.0582L17.4854 21.0805L17.53 21.1023L17.5745 21.1236L17.6194 21.1445L17.6642 21.1649L17.7092 21.1847L17.7545 21.2042L17.7998 21.2231L17.8452 21.2416L17.8908 21.2596L17.9365 21.277L17.9824 21.2941L18.0282 21.3106L18.0743 21.3267L18.1203 21.3422L18.1665 21.3574L18.2128 21.372L18.2592 21.3862L18.3056 21.3998L18.3521 21.413L18.3987 21.4256L18.4454 21.4378L18.492 21.4495L18.5387 21.4608L18.5854 21.4715L18.6322 21.4818L18.6791 21.4916L18.726 21.5009L18.7729 21.5098L18.8198 21.5181L18.8667 21.526L18.9137 21.5334L18.9606 21.5403L19.0074 21.5467L19.0544 21.5526L19.1013 21.5582L19.1482 21.5632L19.1951 21.5677L19.242 21.5718L19.2888 21.5754L19.3355 21.5785L19.3823 21.5811L19.429 21.5833L19.4755 21.585L19.5222 21.5862L19.5686 21.587L19.615 21.5874L19.6614 21.5872L19.7077 21.5866L19.754 21.5855L19.8002 21.584L19.8461 21.5821L19.892 21.5796L19.938 21.5767L19.9836 21.5734L20.0293 21.5696L20.0747 21.5654L20.1202 21.5607L20.1654 21.5555L20.2105 21.55L20.2556 21.544L20.3004 21.5375L20.345 21.5306L20.3898 21.5234L20.4342 21.5156L20.4784 21.5074L20.5226 21.4988L20.5666 21.4898L20.6102 21.4803L20.6538 21.4705L20.6973 21.4602L20.7406 21.4494L20.7836 21.4384L20.8265 21.4269L20.8691 21.415L20.9118 21.4026L20.954 21.3898L20.9959 21.3767L21.038 21.3631L21.0796 21.3492L21.121 21.335L21.1622 21.3202L21.2032 21.3051L21.2441 21.2896L21.2846 21.2738L21.3249 21.2575L21.365 21.241L21.4048 21.2239L21.4445 21.2066L21.4837 21.1889L21.5229 21.1708L21.5617 21.1524L21.6002 21.1336L21.6386 21.1145L21.6765 21.095L21.7143 21.0752L21.7518 21.055L21.789 21.0345L21.8259 21.0137L21.8626 20.9925L21.899 20.971L21.935 20.9491L21.9708 20.927L22.0063 20.9045L22.0415 20.8818L22.0765 20.8586L22.111 20.8353L22.1454 20.8115L22.1794 20.7875L22.213 20.7633L22.2463 20.7386L22.2794 20.7138L22.3121 20.6886L22.3445 20.6631L22.3766 20.6374L22.4083 20.6114L22.4398 20.5852L22.4708 20.5586L22.5015 20.5318L22.532 20.5048L22.5621 20.4774L22.5918 20.4499L22.6211 20.4222L22.6502 20.3941L22.679 20.3658L22.7074 20.3373L22.7354 20.3086L22.763 20.2795L22.7902 20.2504L22.8173 20.2209L22.8438 20.1914L22.8701 20.1614L22.8959 20.1314L22.9214 20.1012L22.9466 20.0706L22.9713 20.0401L22.9958 20.0092L23.0198 19.9782L23.0434 19.947L23.0668 19.9156L23.0897 19.8842L23.1122 19.8523L23.1345 19.8204L23.1562 19.7885L23.1777 19.7562L23.1988 19.7238L23.2194 19.6914L23.2397 19.6587L23.2596 19.6259L23.2791 19.593L23.2983 19.5599L23.317 19.5267L23.3354 19.4934L23.3534 19.4599L23.371 19.4265L23.3882 19.3928L23.4051 19.359L23.4216 19.3252L23.4377 19.2911L23.4534 19.2571L23.4686 19.223L23.4835 19.1888L23.4981 19.1544L23.5122 19.1201L23.526 19.0854L23.5393 19.0511L23.5523 19.0162L23.5648 18.9819L23.577 18.947L23.5889 18.9122L23.6002 18.8774L23.6113 18.8426L23.6219 18.8078L23.6322 18.7726L23.642 18.7378L23.6516 18.7026L23.6606 18.6678L23.6694 18.6326L23.6777 18.5974L23.6856 18.5625L23.6931 18.5276L23.7003 18.4922L23.7071 18.4573L23.7135 18.422L23.7195 18.3871L23.7252 18.3521L23.7305 18.317L23.7354 18.2818L23.7398 18.2468L23.744 18.2119L23.7478 18.1771L23.7511 18.142L23.7542 18.1072L23.7568 18.0723L23.759 18.0375L23.761 18.0028L23.7625 17.9682L23.7636 17.9337L23.7644 17.899L23.7649 17.8643L23.765 17.83L23.7646 17.7957L23.764 17.7614L23.763 17.7273L23.7616 17.693L23.7598 17.6593L23.7578 17.6249L23.7554 17.5914L23.7526 17.5577L23.7494 17.5238L23.7459 17.4902L23.7422 17.457L23.7379 17.4234L23.7334 17.3904L23.7286 17.3572L23.7234 17.3245L23.7178 17.2914L23.712 17.2586L23.7058 17.2262L23.6994 17.1938L23.6925 17.1613L23.6853 17.1292L23.6778 17.0971L23.67 17.0653L23.6619 17.0337L23.6534 17.0018L23.6447 16.9706L23.6356 16.9391L23.6262 16.9082L23.6166 16.8772L23.6066 16.8465L23.5962 16.8158L23.5856 16.7853L23.5748 16.7552L23.5636 16.7252L23.5521 16.6951L23.5403 16.6655L23.5282 16.6358L23.516 16.6067L23.5033 16.5774L23.4905 16.5485L23.4773 16.5198L23.4638 16.4912L23.4502 16.4629L23.4362 16.4347L23.4219 16.4067L23.4074 16.379L23.3926 16.3515L23.3777 16.3242L23.3624 16.2971L23.3468 16.2702L23.3311 16.2436L23.3151 16.2172L23.2988 16.1909L23.2823 16.165L23.2656 16.1393L23.2486 16.1138L23.2314 16.0884L23.2141 16.0634L23.1964 16.0386L23.1786 16.014L23.1605 15.9897L23.1422 15.9656L23.1238 15.9418L23.105 15.9181L23.0861 15.8948L23.067 15.8717L23.0477 15.8488L23.0282 15.8262L23.0086 15.8038L22.9886 15.7818L22.9686 15.7599L22.9483 15.7382L22.9279 15.717L22.9073 15.6959L22.8865 15.675L22.8656 15.6546L22.8445 15.6343L22.8233 15.6143L22.8017 15.5945L22.7802 15.575L22.7585 15.5558L22.7366 15.5369L22.7146 15.5182L22.6924 15.4998L22.6701 15.4817L22.6477 15.4638L22.6251 15.4462L22.6024 15.4289L22.5796 15.4119L22.5566 15.3951L22.5335 15.3786L22.5104 15.3625L22.4871 15.3465L22.4638 15.3309L22.4402 15.3155L22.4166 15.3004L22.393 15.2856L22.369 15.271L22.3452 15.2568L22.3213 15.2429L22.2972 15.2292L22.273 15.2158L22.2488 15.2026L22.2246 15.1898L22.2002 15.1772L22.1758 15.165L22.1512 15.1529L22.1267 15.1412L22.1021 15.1298L22.0774 15.1186L22.0527 15.1078L22.0278 15.0971L22.0032 15.0869L21.9782 15.0769L21.9533 15.0671L21.9284 15.0577L21.9034 15.0485L21.8785 15.0396L21.8534 15.031L21.8284 15.0226L21.8034 15.0146L21.7783 15.0067L21.7532 14.9992L21.7282 14.992L21.703 14.985L21.678 14.9784L21.6529 14.972L21.6278 14.9658L21.6026 14.96L21.5776 14.9544L21.5525 14.9491L21.5274 14.9441L21.5025 14.9393L21.4775 14.9348L21.4524 14.9306L21.4276 14.9266L21.4025 14.923L21.3778 14.9195L21.3528 14.9163L21.328 14.9134L21.3034 14.9108L21.2786 14.9085L21.2539 14.9063L21.2293 14.9045L21.2047 14.9029L21.1802 14.9015L21.1557 14.9005L21.1314 14.8997L21.107 14.899L21.0828 14.8987L21.0586 14.8986L21.0345 14.8989L21.0104 14.8993L20.9865 14.8999L20.9626 14.9009L20.9389 14.902L20.915 14.9034L20.8915 14.905L20.868 14.9069L20.8446 14.909L20.8213 14.9114L20.7979 14.9139L20.7749 14.9167L20.7518 14.9198L20.729 14.923L20.7061 14.9266L20.6834 14.9302L20.6608 14.9342L20.6385 14.9383L20.616 14.9427L20.5938 14.9473L20.5717 14.9521L20.5498 14.9571Z" fill="#475569"/>
</g>
<defs>
<filter id="filter0_d_25_2079" x="0" y="0" width="38.4" height="40" filterUnits="userSpaceOnUse" color-interpolation-filters="sRGB">
<feFlood flood-opacity="0" result="BackgroundImageFix"/>
<feColorMatrix in="SourceAlpha" type="matrix" values="0 0 0 0 0 0 0 0 0 0 0 0 0 0 0 0 0 0 127 0" result="hardAlpha"/>
<feOffset dy="4"/>
<feGaussianBlur stdDeviation="2"/>
<feComposite in2="hardAlpha" operator="out"/>
<feColorMatrix type="matrix" values="0 0 0 0 0 0 0 0 0 0 0 0 0 0 0 0 0 0 0.25 0"/>
<feBlend mode="normal" in2="BackgroundImageFix" result="effect1_dropShadow_25_2079"/>
<feBlend mode="normal" in="SourceGraphic" in2="effect1_dropShadow_25_2079" result="shape"/>
</filter>
</defs>
</svg>
