<svg width="30" height="40" viewBox="0 0 30 40" fill="none" xmlns="http://www.w3.org/2000/svg">
<g filter="url(#filter0_d_25_2306)">
<path d="M13.8055 19.9817V28.1025C13.8055 28.4138 13.6819 28.7124 13.4617 28.9324C13.2417 29.1526 12.9432 29.2762 12.6318 29.2762C12.3206 29.2762 12.022 29.1526 11.8019 28.9324C11.5817 28.7124 11.4581 28.4138 11.4581 28.1025V19.993C11.7849 20.2317 12.1767 20.3649 12.5813 20.3749C13.0222 20.3874 13.4543 20.2487 13.8055 19.9817ZM23.802 17.6343C23.5042 17.6343 23.2184 17.7526 23.0078 17.9632C22.7972 18.1738 22.6788 18.4596 22.6788 18.7575V20.1727C22.6788 20.484 22.8025 20.7826 23.0226 21.0026C23.2427 21.2228 23.5412 21.3464 23.8526 21.3464C24.1639 21.3464 24.4625 21.2228 24.6825 21.0026C24.9027 20.7826 25.0263 20.484 25.0263 20.1727V18.8136C25.0351 18.6526 25.009 18.4915 24.9499 18.3414C24.8909 18.1914 24.8002 18.0557 24.684 17.9438C24.5678 17.8319 24.4289 17.7464 24.2768 17.6929C24.1246 17.6395 23.9627 17.6195 23.802 17.6343ZM8.90839 23.0593C8.50423 23.0472 8.11297 22.9142 7.78519 22.6774V30.8206C7.78519 31.1335 7.90944 31.4335 8.13062 31.6546C8.35179 31.8758 8.65176 32 8.96455 32C9.27734 32 9.57731 31.8758 9.79848 31.6546C10.0197 31.4335 10.1439 31.1335 10.1439 30.8206V22.7336C9.77713 22.9707 9.34437 23.0848 8.90839 23.0593ZM20.1404 15.1969C19.9882 15.1893 19.8361 15.2127 19.6933 15.2658C19.5505 15.3188 19.42 15.4003 19.3096 15.5053C19.1993 15.6105 19.1115 15.7368 19.0516 15.8769C18.9917 16.017 18.9608 16.1678 18.961 16.3201V22.5763C18.961 22.8892 19.0853 23.1892 19.3064 23.4103C19.5277 23.6315 19.8276 23.7557 20.1404 23.7557C20.4532 23.7557 20.7532 23.6315 20.9744 23.4103C21.1955 23.1892 21.3198 22.8892 21.3198 22.5763V16.3987C21.3287 16.2367 21.3025 16.0746 21.2427 15.9236C21.183 15.7727 21.0913 15.6364 20.9738 15.5243C20.8563 15.4122 20.716 15.3269 20.5625 15.2743C20.409 15.2216 20.2458 15.2029 20.0842 15.2194L20.1404 15.1969ZM16.4114 17.6006C15.9883 17.5976 15.5765 17.4643 15.232 17.2187V25.3843C15.232 25.6972 15.3562 25.9972 15.5774 26.2183C15.7987 26.4395 16.0986 26.5637 16.4114 26.5637C16.7242 26.5637 17.0241 26.4395 17.2453 26.2183C17.4665 25.9972 17.5907 25.6972 17.5907 25.3843V17.2299C17.2345 17.4953 16.7994 17.6337 16.3552 17.623L16.4114 17.6006ZM6.35872 23.8568V1.04458C6.35577 0.766506 6.24322 0.500847 6.04554 0.305264C5.84786 0.109681 5.581 -1.12311e-05 5.30291 8.625e-10H5.05581C4.77773 -1.12311e-05 4.51087 0.109681 4.31318 0.305264C4.1155 0.500847 4.00295 0.766506 4 1.04458V23.8568C4 24.1368 4.11124 24.4054 4.30924 24.6034C4.50724 24.8014 4.7758 24.9126 5.05581 24.9126H5.30291C5.58294 24.9126 5.85148 24.8014 6.04948 24.6034C6.24749 24.4054 6.35872 24.1368 6.35872 23.8568ZM9.03194 22.1945H8.78484C8.50482 22.1945 8.23627 22.0833 8.03827 21.8852C7.84027 21.6872 7.72903 21.4187 7.72903 21.1386V3.76272C7.73199 3.48466 7.84453 3.21898 8.04221 3.02341C8.23989 2.82783 8.50675 2.71814 8.78484 2.71815H9.03194C9.31002 2.71814 9.57688 2.82783 9.77457 3.02341C9.97225 3.21898 10.0848 3.48466 10.0878 3.76272V21.1611C10.0878 21.4411 9.97651 21.7097 9.77851 21.9077C9.58051 22.1057 9.31195 22.2169 9.03194 22.2169V22.1945ZM12.7497 19.5212H12.4914C12.2144 19.5212 11.9487 19.4112 11.7528 19.2153C11.5569 19.0194 11.4468 18.7538 11.4468 18.4767V6.45841C11.4454 6.32029 11.4713 6.18325 11.5231 6.05521C11.5749 5.92718 11.6516 5.8107 11.7487 5.71251C11.8459 5.61432 11.9616 5.53637 12.0891 5.48318C12.2166 5.42998 12.3532 5.40259 12.4914 5.4026H12.7497C13.0278 5.40556 13.2935 5.5181 13.489 5.71578C13.6847 5.91346 13.7943 6.18032 13.7943 6.45841V18.4767C13.7943 18.7538 13.6842 19.0194 13.4884 19.2153C13.2925 19.4112 13.0268 19.5212 12.7497 19.5212ZM16.4675 16.7694H16.2317C15.9536 16.7694 15.6867 16.6598 15.489 16.4641C15.2913 16.2686 15.1788 16.0029 15.1759 15.7248V9.25518C15.1666 9.11096 15.1871 8.9664 15.2361 8.83038C15.2849 8.69448 15.3613 8.56991 15.4602 8.46467C15.5592 8.35931 15.6787 8.27552 15.8115 8.21824C15.9441 8.16107 16.0871 8.13164 16.2317 8.13198H16.4788C16.7588 8.13198 17.0273 8.24317 17.2254 8.44119C17.4234 8.63921 17.5346 8.90777 17.5346 9.18779V15.7024C17.536 15.842 17.5099 15.9805 17.4574 16.1098C17.4051 16.2392 17.3276 16.357 17.2293 16.4562C17.1311 16.5554 17.0143 16.6342 16.8854 16.688C16.7565 16.7418 16.6184 16.7694 16.4788 16.7694H16.4675ZM20.1966 14.3545H19.9495C19.6694 14.3545 19.4009 14.2433 19.2029 14.0453C19.0048 13.8473 18.8936 13.5787 18.8936 13.2987V11.6251C18.8966 11.347 19.0091 11.0814 19.2068 10.8858C19.4045 10.6902 19.6714 10.5806 19.9495 10.5806H20.1966C20.4747 10.5806 20.7415 10.6902 20.9392 10.8858C21.1369 11.0814 21.2494 11.347 21.2524 11.6251V13.2987C21.2524 13.5768 21.1427 13.8437 20.9471 14.0414C20.7515 14.239 20.4859 14.3516 20.2078 14.3545H20.1966Z" fill="#475569"/>
</g>
<defs>
<filter id="filter0_d_25_2306" x="0" y="0" width="29.028" height="40" filterUnits="userSpaceOnUse" color-interpolation-filters="sRGB">
<feFlood flood-opacity="0" result="BackgroundImageFix"/>
<feColorMatrix in="SourceAlpha" type="matrix" values="0 0 0 0 0 0 0 0 0 0 0 0 0 0 0 0 0 0 127 0" result="hardAlpha"/>
<feOffset dy="4"/>
<feGaussianBlur stdDeviation="2"/>
<feComposite in2="hardAlpha" operator="out"/>
<feColorMatrix type="matrix" values="0 0 0 0 0 0 0 0 0 0 0 0 0 0 0 0 0 0 0.25 0"/>
<feBlend mode="normal" in2="BackgroundImageFix" result="effect1_dropShadow_25_2306"/>
<feBlend mode="normal" in="SourceGraphic" in2="effect1_dropShadow_25_2306" result="shape"/>
</filter>
</defs>
</svg>
