<svg width="40" height="40" viewBox="0 0 40 40" fill="none" xmlns="http://www.w3.org/2000/svg">
<g filter="url(#filter0_d_25_2125)">
<path fill-rule="evenodd" clip-rule="evenodd" d="M20 32C28.8366 32 36 24.8366 36 16C36 7.16345 28.8366 0 20 0C11.1634 0 4 7.16345 4 16C4 24.8366 11.1634 32 20 32ZM24.9915 7.45348C25.2344 6.59044 24.3969 6.08011 23.632 6.62504L12.9545 14.2317C12.125 14.8226 12.2555 16 13.1505 16H15.9622V15.9782H21.442L16.977 17.5537L15.0086 24.5466C14.7656 25.4096 15.6031 25.9199 16.368 25.375L27.0455 17.7684C27.8751 17.1774 27.7445 16 26.8496 16H22.5857L24.9915 7.45348Z" fill="#475569"/>
</g>
<defs>
<filter id="filter0_d_25_2125" x="0" y="0" width="40.0001" height="40" filterUnits="userSpaceOnUse" color-interpolation-filters="sRGB">
<feFlood flood-opacity="0" result="BackgroundImageFix"/>
<feColorMatrix in="SourceAlpha" type="matrix" values="0 0 0 0 0 0 0 0 0 0 0 0 0 0 0 0 0 0 127 0" result="hardAlpha"/>
<feOffset dy="4"/>
<feGaussianBlur stdDeviation="2"/>
<feComposite in2="hardAlpha" operator="out"/>
<feColorMatrix type="matrix" values="0 0 0 0 0 0 0 0 0 0 0 0 0 0 0 0 0 0 0.25 0"/>
<feBlend mode="normal" in2="BackgroundImageFix" result="effect1_dropShadow_25_2125"/>
<feBlend mode="normal" in="SourceGraphic" in2="effect1_dropShadow_25_2125" result="shape"/>
</filter>
</defs>
</svg>
